<mxfile host="app.diagrams.net" modified="2021-06-18T05:39:20.280Z" agent="5.0 (Windows NT 10.0; Win64; x64) AppleWebKit/537.36 (KHTML, like Gecko) Chrome/91.0.4472.77 Safari/537.36" etag="1az1NUT387vUz1o112bV" version="14.7.10" type="github">
  <diagram id="axrzHDWjHoLacO7TZihq" name="Page-1">
    <mxGraphModel dx="1422" dy="882" grid="1" gridSize="10" guides="1" tooltips="1" connect="1" arrows="1" fold="1" page="1" pageScale="1" pageWidth="827" pageHeight="1169" math="0" shadow="0">
      <root>
        <mxCell id="0" />
        <mxCell id="1" parent="0" />
        <mxCell id="IHbvb3vwH4yyrgAfJa3C-3" value="Product Service" style="shape=umlLifeline;perimeter=lifelinePerimeter;whiteSpace=wrap;html=1;container=1;collapsible=0;recursiveResize=0;outlineConnect=0;fillColor=#ffe6cc;strokeColor=#d79b00;" parent="1" vertex="1">
          <mxGeometry x="600" y="40" width="100" height="550" as="geometry" />
        </mxCell>
        <mxCell id="IHbvb3vwH4yyrgAfJa3C-9" value="" style="html=1;points=[];perimeter=orthogonalPerimeter;fillColor=#ffe6cc;strokeColor=#d79b00;" parent="1" vertex="1">
          <mxGeometry x="645" y="140" width="10" height="430" as="geometry" />
        </mxCell>
        <mxCell id="IHbvb3vwH4yyrgAfJa3C-1" value="UI" style="shape=umlLifeline;perimeter=lifelinePerimeter;whiteSpace=wrap;html=1;container=1;collapsible=0;recursiveResize=0;outlineConnect=0;fillColor=#ffe6cc;strokeColor=#d79b00;" parent="1" vertex="1">
          <mxGeometry x="190" y="40" width="100" height="550" as="geometry" />
        </mxCell>
        <mxCell id="IHbvb3vwH4yyrgAfJa3C-5" value="" style="html=1;points=[];perimeter=orthogonalPerimeter;fillColor=#ffe6cc;strokeColor=#d79b00;" parent="IHbvb3vwH4yyrgAfJa3C-1" vertex="1">
          <mxGeometry x="45" y="80" width="10" height="80" as="geometry" />
        </mxCell>
        <mxCell id="IHbvb3vwH4yyrgAfJa3C-2" value="Contract Service" style="shape=umlLifeline;perimeter=lifelinePerimeter;whiteSpace=wrap;html=1;container=1;collapsible=0;recursiveResize=0;outlineConnect=0;fillColor=#ffe6cc;strokeColor=#d79b00;" parent="1" vertex="1">
          <mxGeometry x="400" y="40" width="100" height="550" as="geometry" />
        </mxCell>
        <mxCell id="IHbvb3vwH4yyrgAfJa3C-4" value="Contract Location&lt;br&gt;Selection Page" style="shape=umlActor;verticalLabelPosition=bottom;verticalAlign=top;html=1;fillColor=#d5e8d4;strokeColor=#82b366;" parent="1" vertex="1">
          <mxGeometry x="80" y="90" width="30" height="60" as="geometry" />
        </mxCell>
        <mxCell id="IHbvb3vwH4yyrgAfJa3C-7" value="Get Locations" style="html=1;verticalAlign=bottom;endArrow=block;exitX=0.5;exitY=0.5;exitDx=0;exitDy=0;exitPerimeter=0;" parent="1" source="IHbvb3vwH4yyrgAfJa3C-4" edge="1">
          <mxGeometry x="0.0381" width="80" relative="1" as="geometry">
            <mxPoint x="120" y="310" as="sourcePoint" />
            <mxPoint x="239.5" y="120" as="targetPoint" />
            <mxPoint as="offset" />
          </mxGeometry>
        </mxCell>
        <mxCell id="IHbvb3vwH4yyrgAfJa3C-8" value="Vendor ID&amp;amp;Delivery Type" style="html=1;verticalAlign=bottom;endArrow=block;" parent="1" source="IHbvb3vwH4yyrgAfJa3C-1" target="IHbvb3vwH4yyrgAfJa3C-3" edge="1">
          <mxGeometry x="-0.4122" width="80" relative="1" as="geometry">
            <mxPoint x="105" y="130" as="sourcePoint" />
            <mxPoint x="249.5" y="130" as="targetPoint" />
            <mxPoint x="1" as="offset" />
            <Array as="points">
              <mxPoint x="410" y="140" />
            </Array>
          </mxGeometry>
        </mxCell>
        <mxCell id="IHbvb3vwH4yyrgAfJa3C-10" value="Division and Warehouse/Store Mapping List" style="html=1;verticalAlign=bottom;endArrow=open;dashed=1;endSize=8;" parent="1" source="IHbvb3vwH4yyrgAfJa3C-3" target="IHbvb3vwH4yyrgAfJa3C-1" edge="1">
          <mxGeometry x="0.3146" relative="1" as="geometry">
            <mxPoint x="560" y="210" as="sourcePoint" />
            <mxPoint x="480" y="210" as="targetPoint" />
            <Array as="points">
              <mxPoint x="540" y="190" />
            </Array>
            <mxPoint as="offset" />
          </mxGeometry>
        </mxCell>
        <mxCell id="IHbvb3vwH4yyrgAfJa3C-11" value="" style="html=1;points=[];perimeter=orthogonalPerimeter;fillColor=#ffe6cc;strokeColor=#d79b00;" parent="1" vertex="1">
          <mxGeometry x="445" y="240" width="10" height="80" as="geometry" />
        </mxCell>
        <mxCell id="IHbvb3vwH4yyrgAfJa3C-12" value="Vendor ID&amp;amp;Delivery Type" style="html=1;verticalAlign=bottom;endArrow=block;" parent="1" source="IHbvb3vwH4yyrgAfJa3C-2" target="IHbvb3vwH4yyrgAfJa3C-3" edge="1">
          <mxGeometry x="-0.095" width="80" relative="1" as="geometry">
            <mxPoint x="470" y="270" as="sourcePoint" />
            <mxPoint x="670" y="270" as="targetPoint" />
            <mxPoint as="offset" />
            <Array as="points">
              <mxPoint x="550.5" y="270" />
            </Array>
          </mxGeometry>
        </mxCell>
        <mxCell id="IHbvb3vwH4yyrgAfJa3C-13" value="Division and Warehouse/Store Mapping List" style="html=1;verticalAlign=bottom;endArrow=open;dashed=1;endSize=8;" parent="1" source="IHbvb3vwH4yyrgAfJa3C-3" target="IHbvb3vwH4yyrgAfJa3C-2" edge="1">
          <mxGeometry x="-0.205" relative="1" as="geometry">
            <mxPoint x="659.5" y="200" as="sourcePoint" />
            <mxPoint x="249.5" y="200" as="targetPoint" />
            <mxPoint x="1" as="offset" />
            <Array as="points">
              <mxPoint x="630" y="310" />
            </Array>
          </mxGeometry>
        </mxCell>
        <mxCell id="IHbvb3vwH4yyrgAfJa3C-14" value="Contract Service" style="shape=umlActor;verticalLabelPosition=bottom;verticalAlign=top;html=1;fillColor=#d5e8d4;strokeColor=#82b366;" parent="1" vertex="1">
          <mxGeometry x="80" y="220" width="30" height="60" as="geometry" />
        </mxCell>
        <mxCell id="IHbvb3vwH4yyrgAfJa3C-15" value="QD Contract Breakdown" style="html=1;verticalAlign=bottom;endArrow=block;exitX=0.5;exitY=0.5;exitDx=0;exitDy=0;exitPerimeter=0;" parent="1" source="IHbvb3vwH4yyrgAfJa3C-14" target="IHbvb3vwH4yyrgAfJa3C-2" edge="1">
          <mxGeometry x="0.213" width="80" relative="1" as="geometry">
            <mxPoint x="180" y="430" as="sourcePoint" />
            <mxPoint x="324.5" y="430" as="targetPoint" />
            <mxPoint as="offset" />
          </mxGeometry>
        </mxCell>
        <mxCell id="IHbvb3vwH4yyrgAfJa3C-16" value="" style="html=1;points=[];perimeter=orthogonalPerimeter;fillColor=#ffe6cc;strokeColor=#d79b00;" parent="1" vertex="1">
          <mxGeometry x="445" y="330" width="10" height="80" as="geometry" />
        </mxCell>
        <mxCell id="IHbvb3vwH4yyrgAfJa3C-17" value="Vendor ID&amp;amp;Delivery Type" style="html=1;verticalAlign=bottom;endArrow=block;" parent="1" edge="1">
          <mxGeometry x="-0.095" width="80" relative="1" as="geometry">
            <mxPoint x="449.5" y="360" as="sourcePoint" />
            <mxPoint x="649.5" y="360" as="targetPoint" />
            <mxPoint as="offset" />
            <Array as="points">
              <mxPoint x="550.5" y="360" />
            </Array>
          </mxGeometry>
        </mxCell>
        <mxCell id="IHbvb3vwH4yyrgAfJa3C-18" value="Division and Warehouse/Store Mapping List" style="html=1;verticalAlign=bottom;endArrow=open;dashed=1;endSize=8;" parent="1" edge="1">
          <mxGeometry x="-0.205" relative="1" as="geometry">
            <mxPoint x="649.5" y="400" as="sourcePoint" />
            <mxPoint x="449.5" y="400" as="targetPoint" />
            <mxPoint x="1" as="offset" />
            <Array as="points">
              <mxPoint x="630" y="400" />
            </Array>
          </mxGeometry>
        </mxCell>
        <mxCell id="IHbvb3vwH4yyrgAfJa3C-19" value="Workflow Engine" style="shape=umlActor;verticalLabelPosition=bottom;verticalAlign=top;html=1;fillColor=#d5e8d4;strokeColor=#82b366;" parent="1" vertex="1">
          <mxGeometry x="80" y="310" width="30" height="60" as="geometry" />
        </mxCell>
        <mxCell id="IHbvb3vwH4yyrgAfJa3C-20" value="QD Contract Workflow Rules Executing" style="html=1;verticalAlign=bottom;endArrow=block;exitX=0.5;exitY=0.5;exitDx=0;exitDy=0;exitPerimeter=0;" parent="1" source="IHbvb3vwH4yyrgAfJa3C-19" edge="1">
          <mxGeometry x="0.213" width="80" relative="1" as="geometry">
            <mxPoint x="180" y="520" as="sourcePoint" />
            <mxPoint x="449.5" y="340" as="targetPoint" />
            <mxPoint as="offset" />
          </mxGeometry>
        </mxCell>
        <mxCell id="IHbvb3vwH4yyrgAfJa3C-21" value="" style="html=1;points=[];perimeter=orthogonalPerimeter;fillColor=#ffe6cc;strokeColor=#d79b00;" parent="1" vertex="1">
          <mxGeometry x="445" y="420" width="10" height="80" as="geometry" />
        </mxCell>
        <mxCell id="IHbvb3vwH4yyrgAfJa3C-22" value="Vendor ID&amp;amp;Delivery Type" style="html=1;verticalAlign=bottom;endArrow=block;" parent="1" edge="1">
          <mxGeometry x="-0.095" width="80" relative="1" as="geometry">
            <mxPoint x="449.5" y="450" as="sourcePoint" />
            <mxPoint x="649.5" y="450" as="targetPoint" />
            <mxPoint as="offset" />
            <Array as="points">
              <mxPoint x="550.5" y="450" />
            </Array>
          </mxGeometry>
        </mxCell>
        <mxCell id="IHbvb3vwH4yyrgAfJa3C-23" value="Division and Warehouse/Store Mapping List" style="html=1;verticalAlign=bottom;endArrow=open;dashed=1;endSize=8;" parent="1" edge="1">
          <mxGeometry x="-0.205" relative="1" as="geometry">
            <mxPoint x="649.5" y="490" as="sourcePoint" />
            <mxPoint x="449.5" y="490" as="targetPoint" />
            <mxPoint x="1" as="offset" />
            <Array as="points">
              <mxPoint x="630" y="490" />
            </Array>
          </mxGeometry>
        </mxCell>
        <mxCell id="IHbvb3vwH4yyrgAfJa3C-24" value="PPT Service" style="shape=umlActor;verticalLabelPosition=bottom;verticalAlign=top;html=1;fillColor=#d5e8d4;strokeColor=#82b366;" parent="1" vertex="1">
          <mxGeometry x="80" y="400" width="30" height="60" as="geometry" />
        </mxCell>
        <mxCell id="IHbvb3vwH4yyrgAfJa3C-25" value="PPT Convert QD Contract" style="html=1;verticalAlign=bottom;endArrow=block;exitX=0.5;exitY=0.5;exitDx=0;exitDy=0;exitPerimeter=0;" parent="1" source="IHbvb3vwH4yyrgAfJa3C-24" edge="1">
          <mxGeometry x="0.213" width="80" relative="1" as="geometry">
            <mxPoint x="180" y="610" as="sourcePoint" />
            <mxPoint x="449.5" y="430" as="targetPoint" />
            <mxPoint as="offset" />
          </mxGeometry>
        </mxCell>
      </root>
    </mxGraphModel>
  </diagram>
</mxfile>
